<svg width="32" height="32" viewBox="0 0 32 32" xmlns="http://www.w3.org/2000/svg">
  <g transform="scale(0.9) translate(1.5, 3)">
    <path d="M11 16V13C11 11.3 12.3 10 14 10C15.7 10 17 11.3 17 13V15.5C17 16.3 18.2 16.3 18.2 15.5V13.5C18.2 11.8 19.5 10.5 21.2 10.5C22.9 10.5 24.2 11.8 24.2 13.5V15C24.2 15.8 25.4 15.8 25.4 15V14.5C25.4 12.8 26.7 11.5 28.4 11.5C30.1 11.5 31.4 12.8 31.4 14.5V19.5C31.4 24.7 27.2 29 22 29H16C10.5 29 6 24.5 6 19V15.5C6 13 8 11 10.5 11C11 11 11.5 11.2 11.9 11.5" fill="white" stroke="black" stroke-width="2" stroke-linejoin="round"/>
  </g>
</svg>
