<svg width="32" height="32" viewBox="0 0 32 32" xmlns="http://www.w3.org/2000/svg">
  <g transform="scale(0.9) translate(1.5, 1)">
    <path d="M12.5 14V6.5C12.5 5.1 13.6 4 15 4C16.4 4 17.5 5.1 17.5 6.5V12C17.5 12.5 18 13 18.5 13C19 13 19.5 12.5 19.5 12V7.5C19.5 6.1 20.6 5 22 5C23.4 5 24.5 6.1 24.5 7.5V13C24.5 13.5 25 14 25.5 14C26 14 26.5 13.5 26.5 13V9.5C26.5 8.1 27.6 7 29 7C30.4 7 31.5 8.1 31.5 9.5V19C31.5 24.5 27 29 21.5 29H15.5C10.2 29 6 24.7 6 19.5V14.5C6 11.5 8.5 9 11.5 9C12.1 9 12.5 9.4 12.5 10V14Z" fill="white" stroke="black" stroke-width="2" stroke-linejoin="round"/>
  </g>
</svg>
